<?xml version="1.0" standalone="no"?><!DOCTYPE svg PUBLIC "-//W3C//DTD SVG 1.1//EN" "http://www.w3.org/Graphics/SVG/1.1/DTD/svg11.dtd"><svg t="1597636845998" class="icon" viewBox="0 0 1024 1024" version="1.1" xmlns="http://www.w3.org/2000/svg" p-id="20369" width="64" height="64" xmlns:xlink="http://www.w3.org/1999/xlink"><defs><style type="text/css"></style></defs><path d="M938.172324 353.645434l-14.342287-8.251727-11.198773-6.4835-2.161166-1.375288v45.384498l2.161166 1.178818 5.697621 3.339984a53.439754 53.439754 0 0 1 24.95165 31.82809V425.160399a15.324635 15.324635 0 0 1 0 2.750576v0.982348a51.867997 51.867997 0 0 1 0 5.501151v74.85495l-32.810437 16.503454v-5.108212h-2.161167l-2.357636 1.178818v4.518803l-15.128166 7.465848-4.518802 2.161167-19.646969 9.627014-289.596316 143.226401-8.055257-6.679969-10.019954-6.67997h-1.768227a87.42901 87.42901 0 0 0-10.609363-4.911742 56.583269 56.583269 0 0 0-11.591712-3.732924h-29.077513a49.70683 49.70683 0 0 0-8.448197 0 29.863392 29.863392 0 0 0-4.125863 0l-5.108212 1.375288a62.47736 62.47736 0 0 0-11.788181 3.536454 106.879509 106.879509 0 0 0-10.609363 5.108212h-0.982348l-10.019954 6.679969-8.841136 6.67997-290.971604-143.422871-19.646969-9.627014-4.715272-2.357637-14.931696-7.269378v-4.518803l-2.554106-1.178818h-2.161167v5.501151L77.831571 509.445894v-72.890253A37.918649 37.918649 0 0 1 77.831571 432.233308v-2.750576a29.666922 29.666922 0 0 1 1.375288-7.269378 52.653876 52.653876 0 0 1 25.14812-34.185725l5.108212-2.947046h0.982348l2.161167-1.178818v-46.563315H111.231418L84.90448 353.645434A94.108979 94.108979 0 0 0 38.537634 434.590944v589.409056h946.198005v-589.409056A93.91251 93.91251 0 0 0 938.172324 353.645434zM77.831571 548.346892l35.364544 17.289332 41.848043 19.646969 44.991558 21.808135L411.830037 710.827322l-4.322334 3.143515-229.083653 171.714505L77.831571 961.32617z m35.364544 435.573292l130.84881-98.234842 201.577897-151.478128 5.304682-3.929394 29.273983-22.004604a70.925556 70.925556 0 0 1 7.072909-4.518803 52.850345 52.850345 0 0 1 47.938603 0 70.925556 70.925556 0 0 1 7.072909 4.518803l29.273983 22.004604 5.108212 3.732924 202.560245 151.674598 130.848811 98.234842z m832.245587-22.594014L844.063344 885.685342l-227.708365-171.714505-4.322333-3.143515L822.05874 609.056025l46.366845-22.594014 41.651574-19.646969 35.364543-17.289332zM557.021134 163.266309h205.114352v39.293937H557.021134z" p-id="20370" fill="#bfcbd9"></path><path d="M599.655056 407.871067h162.48043v39.293937h-162.48043z" p-id="20371" fill="#bfcbd9"></path><path d="M111.034948 0v562.296239l44.00921 22.594014 44.991558 22.986953 206.882578 106.093631 33.203377 17.092862 5.501151 3.143515 5.304682-3.929394 29.273983-22.004604a70.925556 70.925556 0 0 1 7.072909-4.518803 52.850345 52.850345 0 0 1 47.938603 0 70.925556 70.925556 0 0 1 7.072909 4.518803l29.273983 22.004604 5.108212 3.732924 39.293937-19.646968L822.05874 609.056025l46.366845-23.772832 32.221029-16.503454 11.591711-5.108212V0z m757.390637 535.183423l-292.346891 150.102839-9.430545-6.483499-3.143515-1.768227a73.479662 73.479662 0 0 0-10.019954-4.715273 58.940906 58.940906 0 0 0-13.752878-4.911742 45.777437 45.777437 0 0 0-7.072909-1.571757h-26.130468a49.70683 49.70683 0 0 0-8.448197 0 29.863392 29.863392 0 0 0-4.125863 0l-5.108212 1.375287a62.47736 62.47736 0 0 0-11.788181 3.536455 106.879509 106.879509 0 0 0-10.609363 5.108212h-0.982348l-10.019954 6.679969-8.841136 6.679969-291.561013-142.440522V44.205679h713.381427z" p-id="20372" fill="#bfcbd9"></path><path d="M251.314304 163.266309H498.276698v39.293937H251.314304zM251.314304 290.578665h510.821182v39.293937h-510.821182zM251.314304 407.871067h289.596316v39.293937H251.314304z" p-id="20373" fill="#bfcbd9"></path></svg>