<?xml version="1.0" standalone="no"?><!DOCTYPE svg PUBLIC "-//W3C//DTD SVG 1.1//EN" "http://www.w3.org/Graphics/SVG/1.1/DTD/svg11.dtd"><svg t="1597630408142" class="icon" viewBox="0 0 1024 1024" version="1.1" xmlns="http://www.w3.org/2000/svg" p-id="6011" xmlns:xlink="http://www.w3.org/1999/xlink" width="48" height="48"><defs><style type="text/css"></style></defs><path d="M398.222222 398.222222h341.333334v56.888889H398.222222V398.222222z m0-170.666666h341.333334v56.888888H398.222222V227.555556zM341.333333 56.888889h455.111111v56.888889H341.333333V56.888889z m227.555556 625.777778v-113.777778h56.888889v170.666667H398.222222v-170.666667h56.888889v113.777778h113.777778z m-227.555556-113.777778h56.888889v56.888889H113.777778v-56.888889h56.888889V170.666667h56.888889v398.222222h56.888888V227.555556H227.555556V170.666667h56.888888V56.888889h56.888889v512z m455.111111 0V56.888889h56.888889v512h56.888889v56.888889h-284.444444v-56.888889h170.666666z m56.888889 341.333333v-284.444444h56.888889v341.333333H113.777778v-341.333333h56.888889v284.444444h682.666666z" fill="#bfcbd9" p-id="6012"></path></svg>