<?xml version="1.0" standalone="no"?><!DOCTYPE svg PUBLIC "-//W3C//DTD SVG 1.1//EN" "http://www.w3.org/Graphics/SVG/1.1/DTD/svg11.dtd"><svg t="1597644503144" class="icon" viewBox="0 0 1039 1024" version="1.1" xmlns="http://www.w3.org/2000/svg" p-id="25417" width="64.9375" height="64" xmlns:xlink="http://www.w3.org/1999/xlink"><defs><style type="text/css"></style></defs><path d="M939.223175 862.772992c-12.304234 49.581232-55.964616 85.733617-107.629299 85.733617-47.960315 0-88.809675-30.727839-104.355743-75.016531L296.751634 873.490078c-15.547091 44.322461-56.428174 75.016531-104.389512 75.016531-51.664683 0-95.258551-36.152385-107.596554-85.733617-53.716412-22.525016-87.949075-78.126358-83.451644-139.847072l10.55131-143.583163c4.134157-57.32152 40.220027-107.993596 91.918479-131.61048l46.439682-223.826741c17.001209-81.829703 97.211019-148.413168 178.843224-148.413168l365.855502 0c81.632205 0 161.842015 66.549695 178.809455 148.413168l46.439682 223.826741c51.698452 23.61586 87.784322 74.28896 91.952248 131.61048l10.518564 143.583163C1027.139503 784.647657 992.939587 840.248999 939.223175 862.772992L939.223175 862.772992zM949.808254 584.138994c-2.744507-37.276998-30.16502-71.113641-66.748217-82.293261-11.973706-3.671623-20.672832-14.289448-22.127973-26.990724-0.231267-1.818415-0.363274-3.605108-0.462534-5.358031-0.066515-0.926092-0.066515-1.88493-0.264013-2.844791l-47.563272-229.384317c-11.014868-52.954049-64.928778-97.706299-117.718075-97.706299L329.066621 139.561569c-52.823066 0-106.704231 44.75225-117.718075 97.706299l-47.597041 229.417063c-0.198521 0.859577-0.198521 1.819438-0.264013 2.778276-0.132006 1.819438-0.264013 3.672646-0.462534 5.491061-1.487887 12.701277-10.155291 23.252587-22.095227 26.924209-36.614919 11.146874-64.068178 44.982494-66.779939 82.293261L63.630203 727.755925c-2.812045 38.20309 20.24202 70.848605 56.063877 79.349209 13.561877 3.27458 23.418362 15.381315 24.113187 29.670763 1.290389 26.758434 22.624277 47.694255 48.555879 47.694255 25.336038 0 46.108131-19.679202 48.357358-45.809325 1.455141-16.504906 14.950504-29.173436 31.124881-29.173436l480.266251 0c16.174378 0 29.735232 12.668531 31.124881 29.173436 2.249227 26.130124 23.02132 45.809325 48.357358 45.809325 25.931602 0 47.26549-20.969591 48.555879-47.694255 0.727571-14.355963 10.584056-26.428929 24.145933-29.670763 35.788088-8.500605 58.843176-41.179888 55.997362-79.382978L949.808254 584.138994 949.808254 584.138994zM840.260256 711.283766c-13.098319 13.396101-31.455409 21.201881-49.945529 21.201881-18.49012 0-36.84721-7.806803-49.912783-21.201881-13.06455-13.396101-20.671809-32.215726-20.671809-51.16838 0-18.952654 7.607258-37.806047 20.671809-51.202149 13.065574-13.396101 31.422663-21.201881 49.912783-21.201881 18.49012 0 36.84721 7.806803 49.945529 21.201881 13.06455 13.396101 20.671809 32.249495 20.671809 51.202149C860.932064 679.06804 853.324806 697.887664 840.260256 711.283766L840.260256 711.283766zM780.326235 466.023876c-6.119371 7.574512-16.07614 11.973706-27.684526 11.973706L271.282566 477.997582c-11.576663 0-21.533432-4.399193-28.081569-12.437264-6.250354-7.375991-8.930393-18.093077-7.17747-29.702486 0.165776-0.794086 0.297782-1.554402 0.463558-2.315742l37.806047-168.456666c4.762467-26.593681 30.430056-48.754401 56.825217-48.754401l361.687576 0c26.39516 0 52.062749 22.226211 56.792471 48.754401l37.806047 168.490435c0.198521 0.760317 0.330528 1.521656 0.462534 2.315742C789.587156 447.50101 786.940886 458.218096 780.326235 466.023876L780.326235 466.023876zM689.002296 280.367479 335.020216 280.367479l-29.999245 133.561925 413.948847 0L689.002296 280.367479 689.002296 280.367479zM283.5868 711.283766c-13.065574 13.396101-31.422663 21.201881-49.912783 21.201881-18.489096 0-36.846186-7.806803-49.91176-21.201881-13.098319-13.396101-20.705578-32.215726-20.705578-51.16838 0-18.952654 7.607258-37.806047 20.705578-51.202149 13.065574-13.396101 31.422663-21.201881 49.91176-21.201881 18.49012 0 36.84721 7.806803 49.912783 21.201881 13.098319 13.396101 20.705578 32.249495 20.705578 51.202149C304.292378 679.06804 296.685119 697.887664 283.5868 711.283766L283.5868 711.283766z" p-id="25418" fill="#bfcbd9"></path></svg>