<?xml version="1.0" standalone="no"?><!DOCTYPE svg PUBLIC "-//W3C//DTD SVG 1.1//EN" "http://www.w3.org/Graphics/SVG/1.1/DTD/svg11.dtd"><svg t="1597636145970" class="icon" viewBox="0 0 1024 1024" version="1.1" xmlns="http://www.w3.org/2000/svg" p-id="17487" width="64" height="64" xmlns:xlink="http://www.w3.org/1999/xlink"><defs><style type="text/css"></style></defs><path d="M513.283738 6.704702C232.88863 6.704702 5.659395 233.932913 5.659395 514.329045c0 280.332686 227.229235 507.624343 507.624343 507.624343 280.396131 0 507.624343-227.290633 507.624343-507.624343C1020.910127 233.932913 793.679869 6.704702 513.283738 6.704702zM514.46361 783.881201c-94.808296 1.609661-190.978613-24.972764-191.972243-88.48938-1.673106-110.794385 77.272921-202.812125 177.780009-210.125695-52.609195-4.647857-94.622054-51.617611-95.489818-110.113887-0.991584-62.336744 44.740994-113.645316 101.872179-114.6369 57.009412-1.176802 104.22783 48.829102 105.280812 110.794385 0.805342 58.743916-39.845497 107.015316-92.081185 113.52252 100.694353 3.841491 182.303023 92.947925 184.039573 203.868177C704.697255 752.154615 609.393679 782.02083 514.46361 783.881201z" p-id="17488" fill="#bfcbd9"></path></svg>