<?xml version="1.0" standalone="no"?><!DOCTYPE svg PUBLIC "-//W3C//DTD SVG 1.1//EN" "http://www.w3.org/Graphics/SVG/1.1/DTD/svg11.dtd"><svg t="1597742303912" class="icon" viewBox="0 0 1024 1024" version="1.1" xmlns="http://www.w3.org/2000/svg" p-id="2908" width="64" height="64" xmlns:xlink="http://www.w3.org/1999/xlink"><defs><style type="text/css"></style></defs><path d="M923.2 629.4c10-36.6 15.1-74.6 15.1-112.9 0-49.3-8.3-97.7-24.8-143.7-15.9-44.5-39-85.9-68.6-122.9-57.2-71.8-136.9-123.6-225-146.8-12.4-48.6-56.5-84.5-109-84.5s-96.5 35.9-109 84.5c-88.7 23.4-168.9 75.8-226.2 148.1-29.3 37-52.1 78.1-67.8 122.4-16.2 45.8-24.5 93.8-24.5 142.8 0 38.7 5.2 76.9 15.4 113.9-37.3 34.9-47.1 92.1-20.5 138.3 20.8 36.1 58.6 56.3 97.5 56.3 11.3 0 22.7-1.7 33.8-5.2 37.2 37 80.3 66.5 128.3 87.8 54.6 24.2 112.7 36.4 172.8 36.4 60.1 0 118.2-12.2 172.8-36.4 48.3-21.4 91.6-51.1 129-88.4 11.2 3.6 22.7 5.3 34.1 5.3 38.9 0 76.7-20.2 97.5-56.3 26.9-46.3 16.9-103.9-20.9-138.7zM510.9 63.6c37.2 0 67.5 30.3 67.5 67.5s-30.3 67.5-67.5 67.5-67.5-30.3-67.5-67.5c0-37.3 30.3-67.5 67.5-67.5zM117.4 746.1c-18.6-32.2-7.5-73.6 24.7-92.2 10.3-5.9 21.9-9.1 33.6-9.1 24.1 0 46.5 12.9 58.5 33.8 18.6 32.2 7.5 73.6-24.7 92.2-10.3 5.9-21.9 9.1-33.6 9.1-24.1 0-46.5-12.9-58.5-33.8z m393.5 152.8c-98 0-189.5-36.2-260.4-102.4 39.2-34.7 49.9-93.3 22.7-140.3-20.8-36.1-58.6-56.3-97.5-56.3-12.3 0-24.6 2-36.6 6.2-7-29.2-10.6-59.3-10.6-89.6 0-169.8 110.8-317.7 271.6-366.1 9.2 52.9 55.3 93.2 110.8 93.2s101.7-40.3 110.8-93.2c161 48.4 271.6 195.9 271.6 366.1 0 30.1-3.5 59.9-10.4 88.9-11.8-4-23.9-6-36-6-38.9 0-76.7 20.2-97.5 56.3-27.1 47-16.5 105.5 22.5 140.2-70.9 66.6-162.7 103-261 103z m394.4-153.2c-12 20.8-34.5 33.8-58.5 33.8-11.7 0-23.4-3.1-33.6-9.1-32.2-18.6-43.3-60-24.7-92.2 12-20.8 34.5-33.8 58.5-33.8 11.7 0 23.4 3.1 33.6 9.1 32.2 18.6 43.3 59.9 24.7 92.2z" fill="#bfcbd9" p-id="2909"></path></svg>