<?xml version="1.0" standalone="no"?><!DOCTYPE svg PUBLIC "-//W3C//DTD SVG 1.1//EN" "http://www.w3.org/Graphics/SVG/1.1/DTD/svg11.dtd"><svg t="1597636943583" class="icon" viewBox="0 0 1024 1024" version="1.1" xmlns="http://www.w3.org/2000/svg" p-id="20629" width="64" height="64" xmlns:xlink="http://www.w3.org/1999/xlink"><defs><style type="text/css"></style></defs><path d="M513.024 602.112c-25.6 0-50.176-10.24-68.608-28.672L82.944 211.968c-15.36-15.36-25.6-36.864-27.648-59.392l61.44-6.144c1.024 6.144 3.072 14.336 10.24 21.504l361.472 361.472c13.312 13.312 36.864 13.312 50.176 0l361.472-361.472c5.12-5.12 9.216-12.288 10.24-20.48l61.44 7.168c-3.072 21.504-12.288 40.96-27.648 56.32L580.608 573.44c-17.408 18.432-41.984 28.672-67.584 28.672z" p-id="20630" fill="#bfcbd9"></path><path d="M876.544 936.96H147.456C71.68 936.96 10.24 875.52 10.24 799.744V224.256C10.24 148.48 71.68 87.04 147.456 87.04h729.088c75.776 0 137.216 61.44 137.216 137.216v520.192c0 17.408-13.312 30.72-30.72 30.72s-30.72-13.312-30.72-30.72V224.256c0-41.984-33.792-75.776-75.776-75.776H147.456c-41.984 0-75.776 33.792-75.776 75.776v575.488c0 41.984 33.792 75.776 75.776 75.776h729.088c10.24 0 21.504-2.048 30.72-6.144 15.36-6.144 27.648-18.432 35.84-32.768 8.192-14.336 26.624-20.48 41.984-12.288 14.336 8.192 20.48 26.624 12.288 41.984-14.336 25.6-36.864 47.104-64.512 58.368-18.432 8.192-36.864 12.288-56.32 12.288z" p-id="20631" fill="#bfcbd9"></path><path d="M40.96 721.92c-10.24 0-19.456-5.12-25.6-14.336-9.216-14.336-5.12-32.768 9.216-41.984l204.8-133.12c14.336-9.216 32.768-5.12 41.984 9.216 9.216 14.336 5.12 32.768-9.216 41.984l-204.8 133.12c-5.12 3.072-10.24 5.12-16.384 5.12zM983.04 721.92c-6.144 0-11.264-2.048-16.384-5.12l-204.8-133.12c-14.336-9.216-18.432-28.672-9.216-41.984s28.672-18.432 41.984-9.216l204.8 133.12c14.336 9.216 18.432 28.672 9.216 41.984-6.144 9.216-15.36 14.336-25.6 14.336z" p-id="20632" fill="#bfcbd9"></path></svg>