<?xml version="1.0" standalone="no"?><!DOCTYPE svg PUBLIC "-//W3C//DTD SVG 1.1//EN" "http://www.w3.org/Graphics/SVG/1.1/DTD/svg11.dtd"><svg t="1597644152832" class="icon" viewBox="0 0 1064 1024" version="1.1" xmlns="http://www.w3.org/2000/svg" p-id="22741" width="66.5" height="64" xmlns:xlink="http://www.w3.org/1999/xlink"><defs><style type="text/css"></style></defs><path d="M447.737534 466.397014l-398.430144-199.215072a33.202512 33.202512 0 0 0-31.874411 0 33.202512 33.202512 0 0 0-17.265306 32.538462v441.593409a33.202512 33.202512 0 0 0 15.937205 27.89011l398.430144 249.01884a33.866562 33.866562 0 0 0 17.265306 5.312402 33.202512 33.202512 0 0 0 33.202512-33.202512V496.279275A33.202512 33.202512 0 0 0 447.737534 466.397014zM398.597816 931.232182l-332.02512-208.511776V353.508473l332.02512 163.356359zM1047.3749 262.53359a33.202512 33.202512 0 0 0-31.874411 0L550.665321 466.397014a33.202512 33.202512 0 0 0-19.921507 30.546311v494.053378a33.202512 33.202512 0 0 0 49.803768 28.55416l464.835168-265.620095a33.202512 33.202512 0 0 0 16.601256-28.554161V290.4237a33.202512 33.202512 0 0 0-14.609106-27.89011zM996.243032 704.127L597.812888 931.232182V518.192933l398.430144-176.637364zM992.922781 177.53516a33.202512 33.202512 0 0 0-22.577709-29.882261L551.329371 1.561846A32.538462 32.538462 0 0 0 531.407864 1.561846L83.838003 156.949602a33.202512 33.202512 0 0 0-3.984302 61.092622l398.430144 199.215072a33.202512 33.202512 0 0 0 14.609105 3.320251 33.866562 33.866562 0 0 0 13.281005 0l464.835168-205.855574a33.202512 33.202512 0 0 0 21.913658-37.186813z m-498.03768 171.324961L180.789338 194.136416 540.040517 67.96687l328.704869 112.888541z" fill="#bfcbd9" p-id="22742"></path></svg>