<?xml version="1.0" standalone="no"?><!DOCTYPE svg PUBLIC "-//W3C//DTD SVG 1.1//EN" "http://www.w3.org/Graphics/SVG/1.1/DTD/svg11.dtd"><svg t="1597743238930" class="icon" viewBox="0 0 1106 1024" version="1.1" xmlns="http://www.w3.org/2000/svg" p-id="7351" width="69.125" height="64" xmlns:xlink="http://www.w3.org/1999/xlink"><defs><style type="text/css"></style></defs><path d="M713.999899 841.320612l-105.441584-104.70423-50.693069 154.844284 156.134653-50.140054z m0 0" fill="#bfcbd9" p-id="7352"></path><path d="M733.171096 872.289469l-230.976057 74.657066 74.841404-229.50135 418.263906-415.683169 4.608461 4.608461V0H169.832842v120.741674H105.498729C42.086308 120.741674 4.296929 160.558776 4.296929 226.920612c0 66.730513 37.789379 106.178938 101.2018 106.178938h64.334113v71.891989H105.498729c-63.412421 0-101.2018 39.817102-101.2018 106.363276C4.296929 578.085329 42.086308 617.533753 105.498729 617.533753h64.334113v71.89199H105.498729C42.086308 689.425743 4.296929 729.242844 4.296929 795.789019s37.789379 106.178938 101.2018 106.178938h64.334113v122.032043h830.444645V606.842124l-267.106391 265.447345z m-455.50027-26.913411H105.498729c-31.337534 0-43.872547-14.194059-43.872547-49.402701 0-35.024302 12.719352-49.4027 43.872547-49.4027h172.172097c31.337534 0 43.872547 14.194059 43.872548 49.4027s-12.535014 49.4027-43.872548 49.402701z m0-284.434204H105.498729c-31.337534 0-43.872547-14.194059-43.872547-49.4027 0-35.024302 12.719352-49.4027 43.872547-49.4027h172.172097c31.337534 0 43.872547 14.194059 43.872548 49.4027s-12.535014 49.4027-43.872548 49.4027z m0-284.618542H105.498729c-31.337534 0-43.872547-14.194059-43.872547-49.4027 0-35.024302 12.719352-49.4027 43.872547-49.4027h172.172097c31.337534 0 43.872547 14.194059 43.872548 49.4027s-12.535014 49.4027-43.872548 49.4027z m0 0" fill="#bfcbd9" p-id="7353"></path></svg>