<?xml version="1.0" standalone="no"?><!DOCTYPE svg PUBLIC "-//W3C//DTD SVG 1.1//EN" "http://www.w3.org/Graphics/SVG/1.1/DTD/svg11.dtd"><svg t="1597634939268" class="icon" viewBox="0 0 1024 1024" version="1.1" xmlns="http://www.w3.org/2000/svg" p-id="15619" width="64" height="64" xmlns:xlink="http://www.w3.org/1999/xlink"><defs><style type="text/css"></style></defs><path d="M426.1 757.8h30.4c7.3 0 13.3-6 13.3-13.3V487.4c0-7.3-5.9-13.4-13.3-13.4h-22.7c-7.3 0-18.7 2.7-25.3 5.9l-51.8 25.6c-6.5 3.3-10.6 11.8-9 18.9l4.2 18.6c1.6 7.1 8.3 10.3 14.8 6.9l33.3-16.7c6.6-3.3 12.1-6 12.5-6 0.2 0 0.4 6 0.4 13.3v203.9c-0.1 7.5 5.9 13.4 13.2 13.4z" p-id="15620" fill="#bfcbd9"></path><path d="M756 734.8v111.8H115.9V410.4H756v113.5l51.9-43.5V361.2h-0.3v-2.7H64.4v2.7H64v494.1c0.1 24 19.3 43.1 43.3 43.2H764.7c24-0.1 43.2-19.2 43.3-43.2l-0.4-191.4-51.6 70.9zM808.8 226.8c-0.1-25.1-20.3-45.3-45.4-45.3h-95.2v-23.3c0-18-13.6-32.7-30.3-32.7h-36.1c-16.7 0-30.3 14.7-30.3 32.7v23.3H286.6v-23.3c0-18-13.6-32.7-30.3-32.7h-36.1c-16.7 0-30.3 14.7-30.3 32.7v23.3h-79.8c-25.2 0.1-45.3 20.3-45.4 45.3v97.7h744.1v-97.7z" p-id="15621" fill="#bfcbd9"></path><path d="M951.7 399.1l-234 196c-9.2 7.7-26 10.5-37.1 6.3l-137-51.8c-11.1-4.2-14.6 0.2-7.3 9.8l148.1 199.1c7.2 9.6 18.7 9.4 25.5-0.5l246-355c6.8-9.8 5-11.6-4.2-3.9z" p-id="15622" fill="#bfcbd9"></path></svg>