<?xml version="1.0" standalone="no"?><!DOCTYPE svg PUBLIC "-//W3C//DTD SVG 1.1//EN" "http://www.w3.org/Graphics/SVG/1.1/DTD/svg11.dtd"><svg t="1597637001873" class="icon" viewBox="0 0 1024 1024" version="1.1" xmlns="http://www.w3.org/2000/svg" p-id="21221" width="64" height="64" xmlns:xlink="http://www.w3.org/1999/xlink"><defs><style type="text/css"></style></defs><path d="M585.142857 0a36.571429 36.571429 0 0 1 36.571429 36.571429v950.857142a36.571429 36.571429 0 0 1-36.571429 36.571429h-36.571428L29.403429 920.137143A36.571429 36.571429 0 0 1 0 884.297143V139.702857a36.571429 36.571429 0 0 1 29.403429-35.84L548.571429 0h36.571428z m402.285714 73.142857a36.571429 36.571429 0 0 1 36.571429 36.571429v804.571428a36.571429 36.571429 0 0 1-36.571429 36.571429h-256a36.571429 36.571429 0 0 1 0-73.142857h201.142858a18.285714 18.285714 0 0 0 18.285714-18.285715v-694.857142a18.285714 18.285714 0 0 0-18.285714-18.285715H731.428571a36.571429 36.571429 0 0 1 0-73.142857zM512 457.142857a54.857143 54.857143 0 1 0 0 109.714286 54.857143 54.857143 0 0 0 0-109.714286z" fill="#bfcbd9" p-id="21222"></path></svg>