<?xml version="1.0" standalone="no"?><!DOCTYPE svg PUBLIC "-//W3C//DTD SVG 1.1//EN" "http://www.w3.org/Graphics/SVG/1.1/DTD/svg11.dtd"><svg t="1597631044962" class="icon" viewBox="0 0 1024 1024" version="1.1" xmlns="http://www.w3.org/2000/svg" p-id="10864" xmlns:xlink="http://www.w3.org/1999/xlink" width="64" height="64"><defs><style type="text/css"></style></defs><path d="M122.1 313.17c23.64 17.29 56.58 32.52 97.89 45.23 79.16 24.37 183.65 37.8 294.24 37.8 110.49 0 214.99-13.41 294.3-37.73 40.92-12.62 73.78-27.81 97.73-45.19 40.13-29.26 48.56-60.51 48.56-81.58 0-21.19-8.45-52.57-48.59-81.61-23.93-17.42-56.82-32.63-97.7-45.19-79.08-24.37-183.59-37.78-294.29-37.78-110.49 0-215.02 13.39-294.4 37.69-41.01 12.67-73.87 27.88-97.68 45.19-40.17 29.22-48.6 60.51-48.6 81.61-0.02 21.05 8.4 52.27 48.54 81.56z m41.74-105.84c17.24-12.53 43.83-24.56 76.82-34.73 72.76-22.29 169.92-34.57 273.56-34.57 103.81 0 200.91 12.3 273.43 34.64 33.41 10.27 59.27 21.97 76.92 34.83 14.26 10.32 19.33 19.48 19.33 24.21 0 4.89-5.1 13.85-19.37 24.26-17.31 12.58-43.91 24.6-76.85 34.76-72.71 22.32-169.82 34.59-273.46 34.59-103.7 0-200.79-12.3-273.38-34.66-33.75-10.41-59.63-22.06-76.93-34.73-14.38-10.48-19.48-19.64-19.48-24.3 0.01-4.71 5.09-13.87 19.41-24.3zM915.22 757.17c-19.58 0-35.45 15.88-35.45 35.45 0 4.92-5.1 13.87-19.37 24.26-17.3 12.58-43.9 24.6-76.85 34.78-72.66 22.29-169.79 34.57-273.47 34.57s-200.77-12.3-273.37-34.64c-33.24-10.25-59.84-22.25-76.93-34.73-14.37-10.48-19.49-19.43-19.49-24.32 0-19.57-15.87-35.45-35.45-35.45S69.4 772.96 69.4 792.53c0 21.05 8.44 52.27 48.58 81.61 23.7 17.29 56.62 32.49 97.88 45.21 79.17 24.37 183.67 37.78 294.23 37.78 110.55 0 215.05-13.39 294.32-37.71 40.94-12.65 73.79-27.83 97.7-45.19 40.15-29.24 48.57-60.51 48.57-81.61-0.01-19.57-15.87-35.45-35.46-35.45z" fill="#bfcbd9" p-id="10865"></path><path d="M915.22 577.09c-19.58 0-35.45 15.88-35.45 35.45 0 4.66-5.09 13.85-19.35 24.23-17.38 12.6-43.98 24.62-76.87 34.78-26.14 8.01-55.75 14.82-88 20.19-19.31 3.23-32.36 21.49-29.13 40.8 2.9 17.33 17.91 29.61 34.92 29.61 1.94 0 3.91-0.16 5.89-0.48 35.32-5.91 68-13.41 97.16-22.36 40.86-12.6 73.71-27.79 97.73-45.19 40.13-29.26 48.56-60.51 48.56-81.58-0.01-19.57-15.87-35.45-35.46-35.45zM117.98 694.03c23.7 17.29 56.62 32.49 97.86 45.21 30.19 9.3 64.12 17.03 100.88 23.03 1.93 0.32 3.84 0.46 5.75 0.46 17.07 0 32.1-12.35 34.94-29.75 3.15-19.32-9.96-37.53-29.29-40.69-33.56-5.47-64.32-12.49-91.4-20.82-33.23-10.25-59.84-22.25-76.93-34.73-14.39-10.5-19.49-19.64-19.49-24.3 0-19.57-15.87-35.45-35.45-35.45S69.4 592.88 69.4 612.45c0 21.02 8.43 52.27 48.58 81.58zM915.22 398.56c-19.58 0-35.45 15.88-35.45 35.45 0 4.66-5.09 13.85-19.35 24.23-17.38 12.6-43.98 24.62-76.87 34.78-26.14 8.01-55.75 14.82-88 20.19-19.31 3.23-32.36 21.49-29.13 40.8 2.9 17.33 17.91 29.61 34.92 29.61 1.94 0 3.91-0.16 5.89-0.48 35.32-5.91 68-13.41 97.16-22.36 40.86-12.6 73.71-27.79 97.73-45.19 40.13-29.26 48.56-60.51 48.56-81.58-0.01-19.57-15.87-35.45-35.46-35.45zM117.98 515.5c23.7 17.29 56.62 32.49 97.86 45.21 30.19 9.3 64.12 17.03 100.88 23.03 1.93 0.32 3.84 0.46 5.75 0.46 17.07 0 32.1-12.35 34.94-29.75 3.15-19.32-9.96-37.53-29.29-40.69-33.56-5.47-64.32-12.49-91.4-20.82-33.23-10.25-59.84-22.25-76.93-34.73-14.37-10.48-19.49-19.43-19.49-24.32 0-19.57-15.87-35.45-35.45-35.45S69.4 414.32 69.4 433.89c0 21.05 8.43 52.27 48.58 81.61zM617.64 614.95c19.58 0 35.45-15.87 35.45-35.45 0-19.58-15.87-35.45-35.45-35.45h-38.28l43.67-43.67c13.84-13.84 13.84-36.29 0-50.13-13.84-13.84-36.29-13.84-50.13 0l-57.37 57.37-57.37-57.37c-13.84-13.84-36.29-13.84-50.13 0-13.84 13.84-13.84 36.29 0 50.13l43.67 43.67h-39.71c-19.58 0-35.45 15.87-35.45 35.45 0 19.58 15.87 35.45 35.45 35.45h67.37v41.83h-67.37c-19.58 0-35.45 15.87-35.45 35.45 0 19.58 15.87 35.45 35.45 35.45h67.37v86.91c0 19.58 15.87 35.45 35.45 35.45 19.58 0 35.45-15.87 35.45-35.45v-86.91h67.37c19.58 0 35.45-15.87 35.45-35.45 0-19.58-15.87-35.45-35.45-35.45h-67.37v-41.83h67.38z" fill="#bfcbd9" p-id="10866"></path></svg>