<?xml version="1.0" standalone="no"?><!DOCTYPE svg PUBLIC "-//W3C//DTD SVG 1.1//EN" "http://www.w3.org/Graphics/SVG/1.1/DTD/svg11.dtd"><svg t="1597742417381" class="icon" viewBox="0 0 1024 1024" version="1.1" xmlns="http://www.w3.org/2000/svg" p-id="3723" width="64" height="64" xmlns:xlink="http://www.w3.org/1999/xlink"><defs><style type="text/css"></style></defs><path d="M853.596 704.454v-86.846c0-17.673-14.327-32-32-32H656.303v-122.67c52.189-42.544 82.547-106.325 82.693-173.737C738.996 165.018 637.19 64 512 64c-125.19 0-226.996 101.018-226.996 225.2 0 67.39 30.608 131.094 82.759 173.739v122.669H202.404c-17.673 0-32 14.327-32 32v86.846H96c-17.673 0-32 14.327-32 32V928c0 17.673 14.327 32 32 32h832c17.673 0 32-14.327 32-32V736.454c0-17.673-14.327-32-32-32h-74.404zM418.879 420.405c-42.984-29.789-68.706-78.739-68.879-131.08C350 200.93 422.694 129 512.033 129 601.37 129 674 200.93 674 289.325c-0.188 52.354-25.936 101.306-68.945 131.08l-13.815 9.683V578a8 8 0 0 1-8 8H440.694a8 8 0 0 1-8-8V430.088l-13.815-9.683zM242 648h539a8 8 0 0 1 8 8v38a8 8 0 0 1-8 8H242a8 8 0 0 1-8-8v-38a8 8 0 0 1 8-8z m653.954 248H136a8 8 0 0 1-8-8V778a8 8 0 0 1 8-8h752a8 8 0 0 1 8 8v117.954c0 0.025-0.02 0.046-0.046 0.046z" p-id="3724" fill="#bfcbd9"></path></svg>