<?xml version="1.0" standalone="no"?><!DOCTYPE svg PUBLIC "-//W3C//DTD SVG 1.1//EN" "http://www.w3.org/Graphics/SVG/1.1/DTD/svg11.dtd"><svg t="1597644618349" class="icon" viewBox="0 0 1024 1024" version="1.1" xmlns="http://www.w3.org/2000/svg" p-id="26717" width="64" height="64" xmlns:xlink="http://www.w3.org/1999/xlink"><defs><style type="text/css"></style></defs><path d="M772.6 444.3c-3.1-24.6-2.6-49.4 1.5-73.8l20-119.8c8.7-52-31.4-99.4-84.2-99.4h-92.5c-13.2 0-26.3-3.1-38.2-9L531 118.2c-12-6-26.1-6-38.2 0l-48.2 24.1c-11.8 5.9-24.9 9-38.2 9h-92.5c-52.7 0-92.8 47.3-84.2 99.4l20 119.8c4.1 24.4 4.6 49.3 1.5 73.8l-38 261.6c0 85.3 42.7 128 128 128h50c22.6 0 44.3 9 60.3 25l45.3 45.3c8.3 8.3 21.8 8.3 30.2 0l45.3-45.3c16-16 37.7-25 60.3-25h50c85.3 0 128-42.7 128-128l-38-261.6zM640 725.3H384c-23.5 0-42.7-19.2-42.7-42.7S360.5 640 384 640h256c23.5 0 42.7 19.2 42.7 42.7s-19.2 42.6-42.7 42.6z m0-170.6H384c-23.5 0-42.7-19.2-42.7-42.7 0-23.5 19.2-42.7 42.7-42.7h256c23.5 0 42.7 19.2 42.7 42.7 0 23.5-19.2 42.7-42.7 42.7z m0-170.7H384c-23.5 0-42.7-19.2-42.7-42.7 0-23.5 19.2-42.7 42.7-42.7h256c23.5 0 42.7 19.2 42.7 42.7 0 23.5-19.2 42.7-42.7 42.7z" p-id="26718" fill="#bfcbd9"></path></svg>